<svg width="70" height="70" viewBox="0 0 70 70" fill="none" xmlns="http://www.w3.org/2000/svg">
<circle cx="35" cy="35" r="35" fill="url(#paint0_linear_1244_2436)"/>
<path d="M53.9129 46.868C53.3499 46.868 52.8371 46.8257 52.3371 46.8875C52.1203 46.9143 51.8732 47.1149 51.7366 47.3058C50.9593 48.3926 49.9362 48.8006 48.7787 48.4427C47.7274 48.1177 46.9865 47.098 46.9812 45.8717C46.9667 42.4889 46.9696 39.1059 46.9793 35.7232C46.9828 34.4907 47.7808 33.3527 48.7915 33.0747C50.0227 32.7364 51.0118 33.1495 51.7865 34.3204C51.8588 34.4298 51.9555 34.5228 52.2216 34.5947V32.8278C52.2216 32.4872 52.2004 32.1448 52.2257 31.806C52.2976 30.8454 52.2607 30.0297 51.1969 29.4801C50.3221 29.0281 50.2902 27.9826 50.193 27.0876C49.4935 20.6468 44.1828 15.0036 37.7702 13.8508C33.2288 13.0345 29.0394 13.8772 25.3138 16.5847C21.8155 19.1271 19.7204 22.6114 19.0083 26.8868C18.7996 28.1384 18.624 29.3557 17.3024 29.9815C17.1874 30.0359 17.0886 30.2546 17.0869 30.3979C17.0711 31.8035 17.0775 33.2094 17.0775 34.8196C17.305 34.552 17.4166 34.4495 17.4941 34.3257C18.173 33.2405 19.2078 32.7636 20.3248 33.0292C21.4656 33.3006 22.3177 34.2411 22.334 35.5004C22.3787 39.0042 22.3737 42.5093 22.3377 46.0135C22.3254 47.2201 21.4866 48.1898 20.3991 48.4707C19.2612 48.7645 18.2628 48.3183 17.5252 47.2615C17.3798 47.0531 17.0439 46.8871 16.783 46.8669C16.0814 46.8128 15.3726 46.8589 14.6669 46.8457C13.0788 46.8165 11.9618 45.7852 11.9322 44.2103C11.8885 41.8991 11.8914 39.586 11.9313 37.2746C11.9562 35.828 13.0386 34.815 14.5079 34.7403C14.7943 34.7257 15.0808 34.7057 15.4414 34.6838C15.4414 33.195 15.456 31.7634 15.4231 30.3328C15.4189 30.1539 15.1965 29.9302 15.0188 29.8131C13.9309 29.0964 13.5683 28.1883 13.7371 26.8858C14.072 24.3029 14.7816 21.8385 16.0328 19.5556C19.076 14.0026 23.6843 10.3703 29.8516 8.99711C37.6814 7.25414 44.518 9.33278 50.0614 15.1488C53.2397 18.4834 55.0239 22.5515 55.4026 27.1815C55.4948 28.3085 55.2574 29.3145 54.1606 29.9234C54.0502 29.9846 53.9158 30.1316 53.9145 30.2399C53.8983 31.6924 53.9036 33.1448 53.9036 34.6383C54.2368 34.6554 54.4743 34.6735 54.7121 34.6787C56.2354 34.7125 57.355 35.7668 57.3778 37.2946C57.4131 39.6306 57.4017 41.9675 57.3799 44.3035C57.3717 45.1897 56.9575 45.9159 56.1948 46.3616C55.7413 46.6266 55.6478 46.9511 55.6492 47.4289C55.6577 50.3012 54.8388 52.9043 52.9559 55.104C50.6512 57.7963 47.6654 59.0545 44.1494 59.1196C43.7845 59.1264 43.4188 59.1359 43.0547 59.118C42.1768 59.0749 41.4835 59.1565 40.8142 59.9886C39.8116 61.2355 38.2654 60.9297 36.8637 60.7516C35.8415 60.6218 35.221 59.9625 34.868 59.0422C34.5161 58.1244 34.7632 57.2722 35.4211 56.6233C35.8101 56.2397 36.3804 55.9135 36.9115 55.8297C37.7385 55.6993 38.6265 55.6738 39.4405 55.84C40.0267 55.9596 40.6631 56.3593 41.0417 56.8254C41.4318 57.3054 41.7806 57.4676 42.3626 57.4561C44.1579 57.4209 45.9461 57.5179 47.6857 56.8449C51.5888 55.3351 54.1839 51.4327 53.9763 47.2528C53.9716 47.1591 53.9462 47.0663 53.9129 46.868ZM34.6804 9.917C33.2412 10.1155 31.7707 10.1868 30.3679 10.5335C23.2114 12.3025 18.4761 16.7515 16.1321 23.7191C15.7404 24.883 15.5557 26.1255 15.3687 27.346C15.2431 28.1652 15.7091 28.5244 16.4992 28.3899C17.2661 28.2596 17.2301 27.6286 17.2982 27.0977C17.7859 23.3023 19.3586 20.0004 22.0187 17.2867C26.2563 12.9639 31.4468 11.2259 37.4292 12.1667C43.5804 13.1344 47.9299 16.5864 50.622 22.1695C51.4657 23.9186 51.8645 25.7905 52.1349 27.6965C52.219 28.289 52.5795 28.5711 53.1415 28.4988C53.6889 28.4282 54.0088 28.0719 53.973 27.4888C53.9539 27.1751 53.8912 26.8642 53.8433 26.5526C52.3748 17.0034 44.3245 10.0644 34.6804 9.917ZM52.1592 40.7072C52.1592 41.9933 52.1715 43.2797 52.1522 44.5655C52.1458 44.9895 52.2599 45.1899 52.7218 45.1707C53.4001 45.1423 54.0805 45.159 54.7601 45.1641C55.4279 45.1693 55.7323 44.8371 55.7306 44.1775C55.7257 41.8965 55.7364 39.6154 55.7238 37.3343C55.7199 36.6021 55.4442 36.3475 54.6921 36.3335C54.0373 36.3214 53.3803 36.3652 52.7271 36.3309C52.2611 36.3062 52.1456 36.4929 52.1522 36.9217C52.172 38.1832 52.1592 39.4453 52.1592 40.7072ZM17.1642 40.7857C17.1642 39.5205 17.1425 38.2546 17.1747 36.9902C17.1879 36.4653 17.0007 36.3082 16.497 36.3379C15.8666 36.3751 15.2322 36.351 14.5995 36.3434C13.9375 36.3354 13.5866 36.6799 13.582 37.3154C13.5658 39.6024 13.5713 41.8896 13.5767 44.1767C13.5783 44.8688 13.9546 45.1907 14.6362 45.1861C15.2688 45.1818 15.9033 45.1559 16.5336 45.1948C17.0723 45.2281 17.1834 44.9905 17.173 44.508C17.1463 43.2677 17.1642 42.0266 17.1642 40.7857ZM18.8511 40.72C18.8511 42.4216 18.859 44.1231 18.847 45.8247C18.8427 46.4462 19.0457 46.8793 19.7245 46.9225C20.3357 46.9614 20.6755 46.5714 20.6767 45.8264C20.6821 42.4477 20.6822 39.0689 20.6763 35.69C20.6751 34.9392 20.3363 34.5502 19.7263 34.5926C19.0542 34.6392 18.8406 35.0611 18.846 35.6884C18.8604 37.3655 18.8509 39.0429 18.8511 40.72ZM50.4718 40.8098C50.4718 39.1313 50.4745 37.4528 50.4706 35.7744C50.4687 35.0002 50.1763 34.6208 49.5862 34.6025C49.0038 34.5844 48.643 34.9907 48.6416 35.7236C48.6348 39.0806 48.6348 42.4374 48.6416 45.7943C48.6432 46.5702 48.9572 46.9314 49.5666 46.9223C50.1695 46.9135 50.4675 46.5444 50.47 45.772C50.4751 44.118 50.4714 42.4638 50.4718 40.8098ZM38.1925 57.3655C37.8532 57.3655 37.5078 57.3249 37.1761 57.3752C36.6998 57.447 36.3917 57.7142 36.3827 58.2504C36.3732 58.8161 36.6682 59.1375 37.1923 59.1758C37.8433 59.2236 38.5035 59.2232 39.1538 59.1717C39.6365 59.1336 39.9438 58.8338 39.952 58.3035C39.9606 57.7444 39.6643 57.4407 39.1369 57.3741C38.8268 57.3352 38.5076 57.3671 38.1925 57.3655Z" fill="white"/>
<path d="M34.6623 39.9427C36.5599 39.9424 38.4575 39.9408 40.3551 39.9429C42.216 39.945 43.3362 40.9788 43.3771 42.8481C43.4245 45.012 43.4031 47.1778 43.3836 49.3427C43.371 50.7498 42.4006 52.0563 40.7524 52.0789C39.3663 52.098 37.9786 52.0761 36.5948 52.1383C36.1371 52.1586 35.6332 52.2942 35.2468 52.5328C33.7995 53.4264 32.3939 54.3873 30.9694 55.3173C30.1835 55.8305 29.5411 55.514 29.4834 54.5697C29.4496 54.0122 29.4521 53.45 29.4809 52.8921C29.5081 52.3613 29.3614 52.1344 28.7647 52.0851C27.1228 51.9498 26.3347 51.3269 26.0273 50.0517C25.9655 49.7953 25.9482 49.5227 25.9474 49.2575C25.9414 47.1412 25.9408 45.0249 25.9455 42.9086C25.9498 41.0626 27.0388 39.9605 28.8965 39.9462C30.8184 39.9311 32.7404 39.9429 34.6623 39.9427ZM31.1036 53.1809C31.4563 52.9894 31.6702 52.8944 31.8612 52.7659C32.8495 52.1019 33.8186 51.4079 34.8247 50.7721C35.1297 50.5795 35.5297 50.4527 35.8897 50.4449C37.4695 50.4102 39.0504 50.4328 40.6311 50.4287C41.4353 50.4266 41.6989 50.1945 41.7036 49.4068C41.7176 47.1701 41.718 44.9331 41.705 42.6963C41.7003 41.8901 41.42 41.565 40.6093 41.5612C36.6462 41.5429 32.6827 41.5482 28.7196 41.5709C27.9321 41.5755 27.6202 41.9022 27.5899 42.6899C27.5478 43.7824 27.5557 44.8773 27.5538 45.9711C27.552 47.0896 27.5359 48.2089 27.5791 49.3257C27.6136 50.2167 27.8731 50.4258 28.7515 50.4298C29.1649 50.4317 29.5784 50.4249 29.9916 50.4313C30.8091 50.4439 31.081 50.7077 31.1013 51.5235C31.1137 52.0245 31.1036 52.5263 31.1036 53.1809Z" fill="white"/>
<path d="M34.6203 45.1005C33.2099 45.1005 31.7995 45.1044 30.3891 45.0991C29.6387 45.0963 29.2664 44.809 29.2977 44.2409C29.3345 43.5747 29.7886 43.4225 30.3603 43.423C33.2296 43.4259 36.099 43.4269 38.9685 43.4224C39.5478 43.4213 39.9872 43.5929 40.0274 44.2488C40.0615 44.805 39.6757 45.0961 38.9244 45.0988C37.4897 45.1044 36.055 45.1005 34.6203 45.1005Z" fill="white"/>
<path d="M32.8706 48.6059C32.0199 48.6059 31.1692 48.6018 30.3185 48.6074C29.7297 48.6111 29.2959 48.4077 29.2998 47.7515C29.3037 47.1327 29.7271 46.9315 30.2795 46.9309C32.0294 46.9286 33.7794 46.9303 35.5294 46.9299C36.0867 46.9296 36.5048 47.1406 36.5145 47.7489C36.5251 48.4053 36.0795 48.6074 35.4956 48.6064C34.6206 48.6046 33.7456 48.6059 32.8706 48.6059Z" fill="white"/>
<defs>
<linearGradient id="paint0_linear_1244_2436" x1="7.12761" y1="-8.79036e-06" x2="95.0165" y2="13.9159" gradientUnits="userSpaceOnUse">
<stop stop-color="#DF7D8D"/>
<stop offset="0.14" stop-color="#DF7D8D"/>
<stop offset="1" stop-color="#AF4F63"/>
</linearGradient>
</defs>
</svg>
