<svg width="244" height="50" viewBox="0 0 244 50" fill="none" xmlns="http://www.w3.org/2000/svg">
<path d="M58.4526 12.5065H66.6584V12.7873C66.1456 12.7873 65.767 12.885 65.5106 13.0804C65.2542 13.2758 65.1076 13.5444 65.071 13.8863C65.0344 14.2282 65.071 14.5946 65.1931 15.0219C65.303 15.4371 65.474 15.8523 65.6816 16.2797L74.2781 33.888L78.4177 25.0838L74.1438 16.2797C73.9362 15.8645 73.6798 15.4493 73.3989 15.0219C73.1059 14.6068 72.7884 14.2282 72.422 13.9107C72.0679 13.581 71.6528 13.3246 71.2009 13.1048C70.7491 12.8972 70.2729 12.7873 69.76 12.7873V12.5065H77.9659V12.7873C77.453 12.7873 77.0744 12.885 76.818 13.0804C76.5616 13.2758 76.4151 13.5444 76.3784 13.8863C76.3418 14.2282 76.3784 14.5946 76.5005 15.0219C76.6104 15.4371 76.7814 15.8523 76.989 16.2797L79.8097 22.0921L82.5572 16.243C82.7159 15.9133 82.8625 15.5592 82.9968 15.144C83.1189 14.7411 83.18 14.3625 83.1555 14.0084C83.1311 13.6665 82.9968 13.3735 82.7526 13.1414C82.5084 12.9094 82.1054 12.7995 81.5559 12.7995V12.5187H86.9776V12.7995C86.4403 12.7995 85.9641 12.9094 85.5367 13.117C85.1093 13.3246 84.7185 13.5933 84.3889 13.9352C84.0469 14.2771 83.7539 14.6556 83.4974 15.083C83.241 15.5104 83.009 15.95 82.8014 16.3896L79.9807 22.4096L85.5855 33.888L93.828 16.2553C93.9867 15.9256 94.1332 15.5714 94.2676 15.1563C94.3897 14.7533 94.4507 14.3748 94.4263 14.0206C94.4019 13.6787 94.2676 13.3857 94.0233 13.1537C93.7791 12.9216 93.3762 12.8117 92.8267 12.8117V12.5309H98.285V12.8117C97.7233 12.8117 97.2348 12.9216 96.8075 13.1292C96.3801 13.3368 95.9893 13.6055 95.6596 13.9474C95.3177 14.2893 95.0247 14.6678 94.7682 15.0952C94.5118 15.5226 94.2798 15.9622 94.0722 16.4018L84.511 36.8919H84.1935L78.552 25.4135L73.1913 36.8919H72.8739L62.8242 16.2919C62.6166 15.8767 62.3602 15.4615 62.0793 15.0342C61.7862 14.619 61.4688 14.2404 61.1024 13.9229C60.7483 13.5933 60.3453 13.3368 59.9058 13.117C59.4662 12.9094 58.9777 12.7995 58.4404 12.7995V12.5065H58.4526Z" fill="white"/>
<path d="M98.9443 24.6931C98.9443 22.9591 99.274 21.3228 99.9334 19.7843C100.593 18.2579 101.496 16.9147 102.632 15.779C103.768 14.6434 105.099 13.7398 106.637 13.0804C108.164 12.421 109.8 12.0913 111.546 12.0913C113.292 12.0913 114.916 12.421 116.431 13.0804C117.945 13.7398 119.276 14.6434 120.411 15.779C121.547 16.9147 122.451 18.2457 123.11 19.7843C123.769 21.3106 124.099 22.9469 124.099 24.6931C124.099 26.427 123.769 28.0633 123.11 29.6019C122.451 31.1283 121.547 32.4715 120.411 33.6071C119.276 34.7428 117.945 35.6464 116.431 36.3058C114.916 36.9652 113.28 37.2949 111.546 37.2949C109.812 37.2949 108.176 36.9652 106.637 36.3058C105.111 35.6464 103.768 34.7428 102.632 33.6071C101.496 32.4715 100.593 31.1405 99.9334 29.6019C99.274 28.0633 98.9443 26.427 98.9443 24.6931ZM101.936 27.6115C102.351 28.9547 102.925 30.188 103.658 31.2992C104.39 32.4104 105.233 33.3751 106.185 34.1688C107.138 34.9748 108.164 35.5853 109.263 36.0127C110.362 36.4401 111.485 36.6599 112.621 36.6599C113.39 36.6599 114.208 36.5378 115.087 36.2813C116.406 35.8662 117.554 35.1701 118.531 34.2055C119.508 33.2408 120.265 32.1052 120.814 30.7986C121.364 29.492 121.669 28.0511 121.73 26.5003C121.803 24.9495 121.596 23.3743 121.107 21.7746C120.692 20.407 120.118 19.1737 119.386 18.0747C118.653 16.9757 117.81 16.0233 116.858 15.2418C115.905 14.448 114.88 13.8497 113.781 13.4101C112.682 12.9827 111.558 12.7629 110.423 12.7629C109.568 12.7629 108.75 12.885 107.993 13.1048C106.674 13.4956 105.526 14.1794 104.549 15.1441C103.572 16.1087 102.815 17.2444 102.254 18.5509C101.692 19.8575 101.387 21.2984 101.313 22.8614C101.24 24.4244 101.448 26.0119 101.936 27.6115Z" fill="white"/>
<path d="M124.795 12.5065H133.001V12.7873C132.488 12.7873 132.11 12.885 131.853 13.0804C131.597 13.2758 131.45 13.5444 131.414 13.8863C131.377 14.2282 131.414 14.5946 131.536 15.0219C131.646 15.4371 131.817 15.8523 132.024 16.2797L140.621 33.888L144.76 25.0838L140.487 16.2797C140.279 15.8645 140.023 15.4493 139.742 15.0219C139.449 14.6068 139.131 14.2282 138.765 13.9107C138.411 13.581 137.996 13.3246 137.544 13.1048C137.092 12.885 136.616 12.7873 136.103 12.7873V12.5065H144.309V12.7873C143.796 12.7873 143.417 12.885 143.161 13.0804C142.904 13.2758 142.758 13.5444 142.721 13.8863C142.685 14.2282 142.721 14.5946 142.843 15.0219C142.953 15.4371 143.124 15.8523 143.332 16.2797L146.152 22.0921L148.9 16.243C149.059 15.9133 149.205 15.5592 149.34 15.144C149.462 14.7411 149.523 14.3625 149.498 14.0084C149.474 13.6665 149.34 13.3735 149.095 13.1414C148.851 12.9094 148.448 12.7995 147.899 12.7995V12.5187H153.32V12.7995C152.783 12.7995 152.307 12.9094 151.879 13.117C151.452 13.3246 151.074 13.5933 150.732 13.9352C150.39 14.2771 150.097 14.6556 149.84 15.083C149.584 15.5104 149.352 15.95 149.144 16.3896L146.323 22.4096L151.928 33.888L160.171 16.2553C160.329 15.9256 160.476 15.5714 160.61 15.1563C160.732 14.7533 160.794 14.3748 160.769 14.0206C160.745 13.6787 160.61 13.3857 160.366 13.1537C160.122 12.9216 159.719 12.8117 159.169 12.8117V12.5309H164.628V12.8117C164.066 12.8117 163.578 12.9216 163.15 13.1292C162.723 13.3368 162.332 13.6055 162.002 13.9474C161.66 14.2893 161.367 14.6678 161.111 15.0952C160.855 15.5226 160.623 15.9622 160.415 16.4018L150.854 36.8919H150.536L144.895 25.4135L139.534 36.8919H139.217L129.167 16.2919C128.959 15.8767 128.703 15.4615 128.422 15.0342C128.129 14.619 127.812 14.2404 127.445 13.9229C127.091 13.5933 126.688 13.3368 126.249 13.117C125.809 12.9094 125.32 12.7995 124.783 12.7995V12.5065H124.795Z" fill="white"/>
<path d="M175.275 12.5065H183.481V12.7873C182.968 12.7873 182.59 12.885 182.333 13.0804C182.077 13.2758 181.93 13.5444 181.894 13.8863C181.857 14.2282 181.894 14.5946 182.016 15.0219C182.126 15.4371 182.297 15.8523 182.504 16.2797L191.101 33.888L199.38 16.2553C199.539 15.9256 199.685 15.5714 199.82 15.1563C199.942 14.7533 200.003 14.3748 199.978 14.0206C199.954 13.6787 199.82 13.3857 199.575 13.1537C199.331 12.9216 198.928 12.8117 198.379 12.8117V12.5309H203.8V12.8117C203.263 12.8117 202.787 12.9216 202.359 13.1292C201.932 13.3368 201.554 13.6055 201.212 13.9474C200.87 14.2893 200.577 14.6678 200.32 15.0952C200.064 15.5226 199.832 15.9622 199.624 16.4018L190.026 36.8919H189.709L179.659 16.2919C179.452 15.8767 179.195 15.4615 178.914 15.0342C178.621 14.619 178.304 14.2404 177.937 13.9229C177.583 13.5933 177.18 13.3368 176.741 13.117C176.301 12.9094 175.813 12.7995 175.275 12.7995V12.5065Z" fill="white"/>
<path d="M209.405 36.5866C209.943 36.5866 210.37 36.4767 210.712 36.2692C211.042 36.0616 211.322 35.7929 211.53 35.4632C211.738 35.1335 211.884 34.7672 211.97 34.3276C212.055 33.9002 212.092 33.4728 212.092 33.0577V16.3041C212.092 15.889 212.055 15.4616 211.97 15.0342C211.884 14.6068 211.738 14.2283 211.53 13.8986C211.322 13.5689 211.054 13.3124 210.712 13.0926C210.37 12.885 209.943 12.7751 209.405 12.7751V12.4943H217.342V12.7751C216.83 12.7751 216.402 12.885 216.06 13.0926C215.706 13.3002 215.438 13.5689 215.23 13.8986C215.022 14.2283 214.876 14.5946 214.79 15.0342C214.705 15.4616 214.668 15.889 214.668 16.3041V33.0699C214.668 33.485 214.705 33.9124 214.79 34.3398C214.876 34.7672 215.022 35.1457 215.23 35.4754C215.438 35.8051 215.718 36.0616 216.06 36.2814C216.402 36.4889 216.842 36.5989 217.342 36.5989V36.8797H209.405V36.5866Z" fill="white"/>
<path d="M222.619 36.5867C223.156 36.5867 223.583 36.4768 223.925 36.2692C224.255 36.0617 224.536 35.793 224.743 35.4633C224.951 35.1336 225.097 34.7673 225.183 34.3277C225.268 33.9003 225.305 33.4729 225.305 33.0577V16.3042C225.305 15.889 225.268 15.4617 225.183 15.0343C225.097 14.6069 224.951 14.2283 224.743 13.8987C224.536 13.569 224.267 13.3125 223.925 13.0927C223.583 12.8851 223.156 12.7752 222.619 12.7752V12.4944H233.889C235.794 12.4944 237.37 12.8363 238.615 13.5201C239.873 14.2039 240.813 15.0587 241.448 16.0722C242.083 17.0979 242.401 18.2091 242.388 19.418C242.376 20.6269 242.059 21.7381 241.436 22.7516C240.813 23.7774 239.861 24.6199 238.603 25.3037C237.333 25.9876 235.77 26.3295 233.889 26.3295H233.157C234.158 26.5126 235.001 26.8912 235.684 27.4407C236.368 28.0024 236.942 28.6374 237.418 29.37C237.895 30.1027 238.298 30.872 238.64 31.6779C238.981 32.496 239.299 33.2287 239.592 33.9003C239.897 34.5719 240.203 35.1336 240.532 35.5732C240.862 36.0128 241.253 36.2326 241.717 36.2326C242.071 36.2326 242.425 36.1471 242.791 35.9762C243.158 35.8052 243.512 35.4999 243.829 35.0603L244 35.1947C243.585 35.8663 243.06 36.3791 242.437 36.721C241.814 37.0752 241.192 37.2461 240.593 37.2461C239.555 37.2461 238.725 36.9775 238.127 36.4402C237.528 35.9029 237.015 35.2435 236.612 34.4376C236.21 33.6317 235.843 32.7769 235.538 31.8489C235.22 30.9208 234.842 30.0538 234.402 29.2357C233.963 28.4298 233.389 27.7459 232.681 27.1965C231.972 26.647 231.032 26.3539 229.848 26.305H227.869V33.0211C227.869 33.4363 227.906 33.8637 227.991 34.2911C228.077 34.7184 228.224 35.097 228.431 35.4267C228.639 35.7564 228.92 36.0128 229.261 36.2326C229.603 36.4402 230.043 36.5501 230.544 36.5501V36.8309H222.606V36.5867H222.619ZM233.889 26.1097C235.208 26.1097 236.307 25.78 237.174 25.1206C238.041 24.4612 238.701 23.6308 239.14 22.654C239.58 21.6649 239.8 20.6025 239.8 19.4547C239.8 18.3068 239.58 17.2445 239.14 16.2554C238.701 15.2663 238.041 14.4481 237.174 13.7888C236.307 13.1294 235.208 12.7997 233.889 12.7997H227.869V26.1097H233.889Z" fill="white"/>
<path d="M43.5855 49.7083H6.12278C2.74678 49.7083 0 46.9615 0 43.5855V6.12278C0 2.74678 2.74678 0 6.12278 0H43.5855C46.9615 0 49.7083 2.74678 49.7083 6.12278V43.5855C49.7083 46.9615 46.9615 49.7083 43.5855 49.7083Z" fill="white"/>
<path d="M42.9914 10.088C39.998 10.088 37.0046 10.088 34.0234 10.088V10.2816C34.8752 10.4268 35.6539 10.9712 36.0676 11.7213C36.8099 13.0763 36.311 14.5402 35.6783 15.7864C35.3375 16.476 27.124 33.0386 27.124 33.0386C27.124 33.0386 17.9856 14.02 17.0365 12.2657C16.7323 11.7092 16.3429 11.2858 15.9292 10.9712C15.126 10.3421 14.0917 10.0759 13.0696 10.0759H6.71777V10.3905C6.96114 10.3421 8.9689 10.9954 9.15143 11.1043C9.9302 11.5761 10.4169 12.2778 10.8915 13.04C11.9136 14.6733 12.595 16.4881 13.4347 18.2181C15.6249 22.7429 17.8274 27.2677 20.0177 31.7925C21.2832 34.4057 22.646 37.019 23.9115 39.6322C23.9237 39.608 35.2159 16.9962 35.3619 16.7179C36.165 15.0967 36.8951 13.4514 38.2579 12.2052C39.5478 11.0317 41.2513 10.3421 42.9914 10.2816C42.9914 10.209 42.9914 10.1485 42.9914 10.088Z" fill="url(#paint0_linear_1244_2584)"/>
<defs>
<linearGradient id="paint0_linear_1244_2584" x1="14.2845" y1="16.1871" x2="38.0362" y2="45.5207" gradientUnits="userSpaceOnUse">
<stop stop-color="#DF7E8E"/>
<stop offset="1" stop-color="#A64251"/>
</linearGradient>
</defs>
</svg>
