<svg width="70" height="70" viewBox="0 0 70 70" fill="none" xmlns="http://www.w3.org/2000/svg">
<circle cx="35" cy="35" r="35" fill="url(#paint0_linear_1244_2414)"/>
<path d="M49.4011 29.3427C48.9829 28.1857 48.2768 27.858 47.219 27.8795C44.3666 27.9375 41.5122 27.9018 38.6587 27.8975C37.664 27.896 37.5383 27.7815 37.5241 26.7826C37.5052 25.4638 37.517 24.1446 37.5125 22.8255C37.5062 20.9435 36.8349 20.245 34.9446 20.222C33.0334 20.199 31.1219 20.2206 29.2105 20.2142C25.4157 20.2011 21.6212 20.1815 17.8264 20.166C16.645 20.161 15.7143 20.442 15.2239 21.7319C14.9163 22.541 14.0752 22.052 13.4683 22.0916C13.158 20.4961 14.5099 18.7211 16.3184 18.4692C17.6437 18.2845 18.9998 18.2823 20.3426 18.2711C25.2684 18.2301 30.1945 18.2123 35.1205 18.2002C37.8498 18.1936 39.4344 19.7723 39.4689 22.5042C39.4799 23.3656 39.5169 24.2302 39.4575 25.0875C39.4064 25.8254 39.6977 25.991 40.3859 25.9805C42.8351 25.9435 45.2852 25.9771 47.7349 25.9619C48.9858 25.9543 49.9386 26.3823 50.6483 27.4808C51.8288 29.3083 53.0824 31.0899 54.3486 32.8599C55.1449 33.9732 56.2919 34.5834 57.649 34.64C60.9744 34.7792 63.1949 37.2818 63.5896 40.4949C63.7397 41.7174 63.6967 42.9675 63.6855 44.2047C63.6771 45.1275 63.4345 45.3276 62.509 45.3307C60.6539 45.3367 58.7986 45.3325 56.8114 45.3325C57.0203 47.3438 56.5507 49.0712 54.8789 50.2749C53.8555 51.0119 52.6996 51.2953 51.4436 51.1533C50.0532 50.996 48.961 50.3072 48.1245 49.2182C47.2767 48.1146 47.1256 46.8141 47.2457 45.3966C46.9209 45.374 46.6628 45.3388 46.4049 45.3407C43.7669 45.3598 41.1291 45.3943 38.491 45.3953C38.1839 45.3954 37.6392 45.2621 37.6125 45.1161C37.5194 44.605 37.5711 44.0559 37.6566 43.5355C37.6702 43.4523 38.1369 43.4063 38.3944 43.4055C41.4095 43.3968 44.4246 43.3925 47.4397 43.4074C47.9192 43.4098 48.2722 43.3135 48.6397 42.9455C50.5905 40.9915 53.5233 41.0366 55.5231 42.9699C55.7602 43.199 56.1564 43.3708 56.4843 43.3805C57.9637 43.424 59.4462 43.363 60.9251 43.4141C61.7326 43.442 61.6778 42.9683 61.6937 42.4307C61.7104 41.8566 61.6796 41.4518 60.903 41.4885C59.8674 41.5372 59.4585 40.8825 59.8351 39.8659C59.8879 39.7231 60.135 39.5951 60.3091 39.5673C60.6127 39.5188 60.9295 39.5537 61.2647 39.5537C60.8683 37.8177 59.3116 36.6538 57.4817 36.6524C51.4251 36.6477 45.3686 36.6493 39.312 36.6483C39.0697 36.6481 38.8271 36.6369 38.5852 36.6475C37.8792 36.679 37.5098 36.322 37.5068 35.6409C37.4991 33.8665 37.5172 32.0922 37.5353 30.3178C37.5413 29.7327 37.8784 29.4361 38.4443 29.3931C38.8196 29.3645 39.1965 29.3455 39.5728 29.345C42.5341 29.3411 45.4954 29.3427 48.4565 29.3427H49.4011ZM49.1795 46.2737C49.1492 47.9298 50.3772 49.1892 52.0328 49.2002C53.6167 49.2107 54.8697 48.0127 54.9063 46.4527C54.9458 44.7564 53.7693 43.4819 52.1299 43.4453C50.4554 43.4081 49.2098 44.6021 49.1795 46.2737ZM46.2602 34.6052H53.1563C52.4692 33.6328 51.8417 32.7025 51.1619 31.8122C50.9926 31.5903 50.6598 31.3762 50.3936 31.3654C49.2155 31.3174 48.0341 31.3574 46.8544 31.3383C46.3913 31.3306 46.2455 31.5289 46.2548 31.9642C46.2731 32.8193 46.2602 33.6749 46.2602 34.6052ZM41.9525 31.3432C41.3602 31.3432 40.766 31.3725 40.1762 31.3349C39.5982 31.298 39.4098 31.5628 39.4191 32.0945C39.431 32.7671 39.3689 33.4447 39.4345 34.1106C39.455 34.3174 39.7807 34.6507 39.9772 34.6583C41.2405 34.7076 42.5074 34.7027 43.7713 34.6596C43.9548 34.6533 44.2685 34.357 44.2818 34.177C44.3373 33.4278 44.3412 32.6678 44.2726 31.9201C44.2537 31.7135 43.9369 31.3988 43.7259 31.3712C43.1435 31.2953 42.5448 31.345 41.9525 31.3432Z" fill="white"/>
<path d="M19.1642 45.2927C18.5532 45.2927 17.9968 45.298 17.4404 45.2918C14.9127 45.2644 13.3646 43.7334 13.3379 41.2253C13.3259 40.0983 13.336 38.9711 13.336 37.8068C13.5487 37.7537 13.7208 37.685 13.8972 37.6712C15.1195 37.5755 15.1661 37.6243 15.1631 38.8217C15.161 39.6287 15.1333 40.4378 15.1817 41.2424C15.2649 42.6203 16.1126 43.4027 17.4855 43.4304C17.8351 43.4375 18.1857 43.4188 18.5346 43.4365C19.459 43.4839 20.2043 43.3424 20.9673 42.6019C22.6777 40.9426 25.4739 41.1849 27.3416 42.9024C27.6361 43.1733 28.115 43.3624 28.5166 43.3774C29.994 43.4333 31.4759 43.4314 32.9543 43.3878C33.7618 43.364 33.6354 43.8862 33.6223 44.3522C33.6091 44.8235 33.818 45.4283 32.9466 45.4064C31.5801 45.3718 30.2119 45.3972 28.7521 45.3972C28.9223 47.3104 28.4476 48.9829 26.8839 50.1887C25.8049 51.0207 24.5514 51.2371 23.2205 51.1076C20.6988 50.8626 19.0949 48.626 19.1642 45.2927ZM23.7795 49.2418C25.3747 49.2977 26.7897 47.998 26.8337 46.4365C26.8784 44.8464 25.6561 43.5207 24.0761 43.4459C22.4494 43.3688 21.0402 44.6538 20.9688 46.2791C20.9024 47.7883 22.23 49.1875 23.7795 49.2418Z" fill="white"/>
<path d="M16.1587 35.6504C14.3557 35.6503 12.5528 35.6475 10.7498 35.6517C10.1148 35.6534 9.52541 35.5785 9.47064 34.7734C9.42734 34.135 9.87565 33.7837 10.7492 33.7786C14.3543 33.7571 17.9597 33.7376 21.5648 33.751C21.936 33.7524 22.4089 33.8786 22.6461 34.127C22.8485 34.3389 22.9344 34.9036 22.7902 35.1418C22.622 35.4197 22.1512 35.654 21.8061 35.6622C20.0861 35.7026 18.3642 35.6624 16.643 35.6508C16.4816 35.6497 16.3201 35.6507 16.1587 35.6504Z" fill="white"/>
<path d="M14.2731 30.8038C12.4471 30.8038 10.621 30.801 8.79496 30.8053C8.15569 30.8068 7.58072 30.7131 7.53354 29.9114C7.49573 29.2707 7.92612 28.935 8.81903 28.9323C12.0414 28.9233 15.2638 28.9314 18.4861 28.9289C18.9685 28.9287 19.4529 28.8737 19.9327 28.9033C20.5321 28.9401 20.977 29.2191 20.9723 29.8921C20.9673 30.5738 20.5182 30.8308 19.909 30.8344C18.0304 30.8456 16.1517 30.8385 14.2731 30.8385V30.8038Z" fill="white"/>
<path d="M12.2482 25.9566C10.4483 25.9566 8.64843 25.954 6.84855 25.9581C6.20701 25.9595 5.61508 25.8588 5.59989 25.0561C5.58487 24.2627 6.17018 24.0883 6.80848 24.0868C10.4619 24.0771 14.1153 24.0761 17.7688 24.0865C18.5902 24.0887 19.0147 24.4378 18.9802 25.0549C18.9357 25.8477 18.3779 25.9624 17.7284 25.9595C15.9017 25.9512 14.0749 25.9566 12.2482 25.9566Z" fill="white"/>
<path d="M39.9645 39.5669C39.8037 39.5669 39.6395 39.5445 39.4831 39.5708C38.6639 39.708 38.4222 39.3684 38.4481 38.5573C38.4705 37.8533 38.6189 37.4936 39.3912 37.6042C39.7062 37.6494 40.0328 37.6111 40.3543 37.6116C41.4083 37.6138 41.4083 37.6139 41.4025 38.6667C41.3975 39.5672 41.3975 39.5672 39.9645 39.5669Z" fill="white"/>
<path d="M24.859 46.2976C24.8283 46.9085 24.5272 47.269 23.9194 47.2764C23.3448 47.2837 23.0186 46.9269 23.0016 46.3792C22.9849 45.8359 23.2909 45.4401 23.8503 45.4029C24.4463 45.3635 24.7794 45.7173 24.859 46.2976Z" fill="white"/>
<defs>
<linearGradient id="paint0_linear_1244_2414" x1="7.12761" y1="-8.79036e-06" x2="95.0165" y2="13.9159" gradientUnits="userSpaceOnUse">
<stop stop-color="#DF7D8D"/>
<stop offset="0.14" stop-color="#DF7D8D"/>
<stop offset="1" stop-color="#AF4F63"/>
</linearGradient>
</defs>
</svg>
