<svg width="70" height="70" viewBox="0 0 70 70" fill="none" xmlns="http://www.w3.org/2000/svg">
<circle cx="35" cy="35" r="35" fill="url(#paint0_linear_1244_2445)"/>
<path d="M37.9094 8.3999C39.0079 8.56239 40.12 8.66256 41.2028 8.89727C48.9834 10.583 54.8628 14.9206 58.3489 22.0529C62.7351 31.0264 61.9709 39.7872 56.0734 47.8853C52.1471 53.2769 46.6968 56.3893 40.1064 57.4627C39.1447 57.6193 38.1693 57.6914 37.177 57.8053C37.842 58.4309 38.5136 59.0625 39.1889 59.6975C38.6579 60.1952 38.2647 60.5638 37.9062 60.8999C36.6147 59.6148 35.2728 58.2796 33.9445 56.9578C35.2473 55.663 36.582 54.3363 37.9425 52.9841C38.2631 53.3516 38.619 53.7598 39.0289 54.2297C38.503 54.7199 37.8874 55.2938 37.1743 55.9586C46.7485 55.9115 57.4 48.5119 59.0801 36.2048C60.9139 22.7709 50.8628 10.9088 37.6633 10.1834C30.7341 9.8025 24.7554 12.1509 19.9112 17.1254C15.062 22.1051 13.0337 28.1677 13.4632 35.145C12.9104 35.2074 12.3776 35.2677 11.7892 35.3341C11.7559 35.1116 11.7111 34.9168 11.6997 34.7201C11.0606 23.7072 17.5244 13.7868 27.8809 9.90854C29.9423 9.13655 32.0775 8.6605 34.2769 8.49072C34.4264 8.47919 34.5733 8.43101 34.7214 8.3999H37.9094Z" fill="white"/>
<path d="M9.11914 37.0112H19.4608V38.2655C19.9929 37.9251 20.4563 37.6504 20.896 37.3423C21.467 36.9419 22.0927 36.7901 22.783 36.792C26.2452 36.8007 29.7072 36.7944 33.1693 36.7968C34.8629 36.7978 36.1401 37.6491 36.6408 39.1003C37.1374 40.5383 36.66 42.039 35.3745 43.0832C35.3121 43.1341 35.2548 43.191 35.1211 43.3126C36.4468 43.4939 37.6159 43.8769 38.9439 43.4446C41.9845 42.4546 45.0789 41.6302 48.1539 40.7473C49.6957 40.3046 51.2698 40.9737 52.0001 42.3616C52.6853 43.664 52.4083 45.2716 51.2864 46.1877C50.9381 46.4722 50.506 46.6964 50.0757 46.8317C43.3845 48.9351 36.6865 51.0169 29.9924 53.111C29.2379 53.3467 28.5319 53.307 27.7968 52.9952C25.198 51.8934 22.585 50.8253 19.9768 49.7456C19.8375 49.6881 19.6931 49.6426 19.48 49.5659V51.6674H9.11914V37.0112ZM27.3036 42.1649H27.9158C29.6978 42.1644 31.4799 42.1741 33.2619 42.1603C34.3058 42.1523 35.0429 41.42 35.0414 40.4376C35.0397 39.4542 34.2991 38.7245 33.2547 38.722C29.6907 38.7139 26.1265 38.7162 22.5625 38.7253C22.3507 38.726 22.1171 38.7795 21.9313 38.8789C21.2069 39.2659 20.4887 39.6668 19.79 40.0978C19.6376 40.192 19.4864 40.4312 19.4849 40.6049C19.4645 42.832 19.4645 45.0597 19.4857 47.2872C19.4873 47.4501 19.6565 47.6954 19.8086 47.7604C22.7341 49.0106 25.6662 50.2453 28.6059 51.4617C28.8348 51.5565 29.1511 51.5683 29.3891 51.4953C36.0436 49.4534 42.6939 47.3972 49.343 45.3371C50.2929 45.0431 50.7139 44.3376 50.4684 43.517C50.1941 42.6005 49.433 42.2124 48.4547 42.4946C45.1351 43.452 41.8197 44.424 38.4927 45.3554C37.9647 45.503 37.3696 45.5795 36.8332 45.5003C34.4462 45.1485 32.0692 44.7284 29.6886 44.3329C28.8346 44.1911 27.9807 44.0495 27.1315 43.9085C27.191 43.3054 27.2442 42.7675 27.3036 42.1649ZM17.7184 38.7488H15.9989V43.8566H14.2444V38.7407H10.8423V49.9223H17.7184V38.7488Z" fill="white"/>
<path d="M21.2295 34.3881V18.813H52.3556C52.3638 18.9926 52.3791 19.1726 52.3791 19.3527C52.3805 24.1684 52.3734 28.9842 52.3908 33.7998C52.3926 34.2731 52.2642 34.3989 51.792 34.3983C41.7833 34.3848 31.7747 34.3881 21.7662 34.3881H21.2295ZM50.6203 20.5611H22.9499V32.6209H50.6203V20.5611Z" fill="white"/>
<rect x="14.2998" y="45.6719" width="2.21121" height="2.52394" fill="white"/>
<path d="M36.7708 30.045C34.8699 30.0363 33.3033 28.4604 33.3175 26.5715C33.3318 24.6741 34.9079 23.1101 36.7978 23.1182C38.688 23.1263 40.2614 24.7114 40.2527 26.5988C40.2438 28.4952 38.6693 30.0538 36.7708 30.045ZM38.5183 26.6079C38.5317 25.6679 37.7493 24.8667 36.8062 24.855C35.8636 24.8434 35.0632 25.6207 35.0476 26.5631C35.0324 27.4959 35.8209 28.3056 36.7611 28.3219C37.6946 28.3382 38.5046 27.5481 38.5183 26.6079Z" fill="white"/>
<path d="M28.1051 29.1615V30.8889H24.6875V27.4834H26.3849V29.1615H28.1051Z" fill="white"/>
<path d="M48.8822 30.9031H45.4746V29.1875H47.1544V27.4834H48.8822V30.9031Z" fill="white"/>
<path d="M24.6709 25.6842V22.3096H28.1013V23.9682H26.395V25.6842H24.6709Z" fill="white"/>
<path d="M45.4619 22.2939H48.886V25.6754H47.1978V24.0004H45.4619V22.2939Z" fill="white"/>
<rect x="29.0156" y="25.751" width="2.54897" height="2.21121" fill="white"/>
<rect x="42.0195" y="25.7427" width="2.5345" height="2.21121" fill="white"/>
<defs>
<linearGradient id="paint0_linear_1244_2445" x1="7.12761" y1="-8.79036e-06" x2="95.0165" y2="13.9159" gradientUnits="userSpaceOnUse">
<stop stop-color="#DF7D8D"/>
<stop offset="0.14" stop-color="#DF7D8D"/>
<stop offset="1" stop-color="#AF4F63"/>
</linearGradient>
</defs>
</svg>
