<svg width="70" height="70" viewBox="0 0 70 70" fill="none" xmlns="http://www.w3.org/2000/svg">
<circle cx="35" cy="35" r="35" fill="url(#paint0_linear_1244_2426)"/>
<path d="M54.567 24.3087H12.9487C12.9307 24.5816 12.9012 24.8187 12.901 25.0557C12.8984 30.0108 12.8949 34.9659 12.901 39.921C12.9035 41.9447 13.8012 43.4174 15.4696 43.9903C16.0747 44.1981 16.7559 44.2562 17.4027 44.2582C23.2336 44.2779 29.0643 44.2664 34.8951 44.2744C35.5293 44.2751 36.3065 44.113 36.4095 45.0849C36.4779 45.7314 36.0423 45.967 34.8823 45.9672C29.0514 45.9677 23.2205 45.9694 17.3897 45.9666C13.4908 45.9648 11.2037 43.6909 11.2021 39.8141C11.1995 33.4354 11.1995 27.0569 11.2026 20.6785C11.2044 17.0741 13.544 14.7087 17.1559 14.7059C28.2154 14.6973 39.2749 14.6973 50.3344 14.7135C53.964 14.7189 56.2724 17.0815 56.2669 20.7007C56.2619 23.9858 56.2652 27.2708 56.2645 30.5558C56.2645 30.7747 56.2685 30.994 56.2585 31.2127C56.2349 31.7358 56.0359 32.14 55.447 32.1402C54.8482 32.1404 54.5653 31.7978 54.5672 31.1965C54.5724 29.4994 54.5677 27.802 54.567 26.1047C54.5668 25.534 54.567 24.9635 54.567 24.3087ZM12.8361 22.5522H54.5647C54.5647 21.8549 54.5808 21.2049 54.5619 20.5558C54.4887 18.035 52.8712 16.4106 50.3504 16.4074C39.266 16.3932 28.1817 16.3947 17.0973 16.4052C15.0984 16.4071 13.4342 17.5527 13.0851 19.2632C12.8707 20.3143 12.913 21.4177 12.8361 22.5522Z" fill="white"/>
<path d="M44.0827 41.8017C44.0827 40.3211 44.0728 38.9013 44.0852 37.4816C44.1025 35.5286 45.1896 34.4337 47.1365 34.4169C48.805 34.4023 50.4739 34.3972 52.1421 34.4191C53.9527 34.4431 55.0586 35.5193 55.1052 37.3292C55.1426 38.8019 55.1125 40.2761 55.1125 41.7886C55.4293 41.8434 55.6913 41.8906 55.9537 41.9333C57.3903 42.167 58.627 43.2414 58.7003 44.6788C58.821 47.0472 58.8417 49.4318 58.7075 51.7982C58.6119 53.4819 57.2835 54.6545 55.5765 54.6802C51.5846 54.7404 47.5905 54.7428 43.5987 54.6802C41.8278 54.6523 40.5718 53.5141 40.4515 51.7302C40.301 49.5001 40.2789 47.2463 40.4183 45.0163C40.5441 43.0008 41.5998 42.1896 44.0827 41.8017ZM49.4997 53.0024C51.3855 53.0024 53.2714 53.0185 55.1568 52.9968C56.4456 52.9818 57.0678 52.3552 57.0813 51.0702C57.1004 49.2393 57.0987 47.4078 57.0821 45.577C57.0697 44.2202 56.4819 43.6226 55.1276 43.6175C51.4382 43.6035 47.7485 43.6042 44.0591 43.617C42.6982 43.622 42.1023 44.2167 42.0886 45.5647C42.0711 47.341 42.0778 49.1176 42.0859 50.8941C42.0929 52.3723 42.7051 52.9925 44.1704 53.0005C45.9467 53.0102 47.7231 53.0029 49.4997 53.0024ZM53.3997 41.8143C53.3997 40.2466 53.4283 38.7228 53.3872 37.201C53.3678 36.4801 52.8507 36.1333 52.1742 36.1235C50.4522 36.0988 48.7294 36.0991 47.0074 36.1239C46.4224 36.1322 45.8811 36.3619 45.8659 37.0489C45.8309 38.6226 45.8548 40.1976 45.8548 41.8143H53.3997Z" fill="white"/>
<path d="M24.8585 28.5011C26.9351 28.5021 29.0118 28.5017 31.0884 28.5025C31.307 28.5025 31.5258 28.5044 31.744 28.5138C32.26 28.5361 32.5742 28.8023 32.5843 29.322C32.5954 29.8857 32.2631 30.1656 31.7128 30.1849C31.3581 30.1971 31.0026 30.1905 30.6475 30.1906C26.6583 30.193 22.6692 30.1959 18.68 30.1966C18.4072 30.1966 18.0712 30.278 17.8761 30.1506C17.5789 29.9567 17.1872 29.6095 17.1924 29.3343C17.1975 29.0587 17.5991 28.7172 17.9058 28.5449C18.137 28.4151 18.4928 28.5012 18.7929 28.5008C20.8149 28.4991 22.8366 28.5 24.8585 28.5011Z" fill="white"/>
<path d="M21.8693 40.053C20.6688 40.053 19.4682 40.0538 18.2681 40.0526C17.6739 40.052 17.1338 39.9379 17.1477 39.1903C17.1605 38.5139 17.6419 38.3555 18.2207 38.356C20.6763 38.3578 23.1319 38.362 25.5876 38.353C26.2254 38.3507 26.6897 38.5656 26.6646 39.265C26.6401 39.9482 26.1182 40.0562 25.5529 40.0542C24.3248 40.05 23.097 40.053 21.8693 40.053Z" fill="white"/>
<path d="M46.5451 30.1967C45.6447 30.1967 44.7445 30.1988 43.8441 30.196C43.2773 30.1941 42.7809 30.063 42.7669 29.3699C42.753 28.6833 43.222 28.5041 43.8021 28.503C45.6298 28.4992 47.4576 28.5026 49.2854 28.501C49.8772 28.5003 50.3326 28.6953 50.3203 29.3686C50.308 30.0494 49.8237 30.2002 49.2459 30.198C48.3455 30.1939 47.4454 30.1967 46.5451 30.1967Z" fill="white"/>
<defs>
<linearGradient id="paint0_linear_1244_2426" x1="7.12761" y1="-8.79036e-06" x2="95.0165" y2="13.9159" gradientUnits="userSpaceOnUse">
<stop stop-color="#DF7D8D"/>
<stop offset="0.14" stop-color="#DF7D8D"/>
<stop offset="1" stop-color="#AF4F63"/>
</linearGradient>
</defs>
</svg>
